<svg width="18" height="18" viewBox="0 0 18 18" fill="none" xmlns="http://www.w3.org/2000/svg">
<path d="M13.6924 10.0144C13.7165 12.5821 15.975 13.4366 16 13.4475C15.9809 13.5078 15.6391 14.6652 14.8101 15.8608C14.0935 16.8944 13.3497 17.9242 12.1781 17.9456C11.0268 17.9665 10.6566 17.2719 9.34041 17.2719C8.02459 17.2719 7.61328 17.9242 6.52348 17.9665C5.39254 18.0087 4.53134 16.8488 3.80876 15.8189C2.33224 13.7124 1.20388 9.86625 2.71899 7.27006C3.47166 5.98078 4.81674 5.16435 6.27671 5.14342C7.38726 5.12251 8.43549 5.88074 9.11439 5.88074C9.79286 5.88074 11.0667 4.96891 12.4058 5.10282C12.9664 5.12585 14.54 5.32629 15.5505 6.7859C15.4691 6.83571 13.6728 7.86764 13.6924 10.0144V10.0144ZM11.5287 3.70914C12.1291 2.99191 12.5332 1.99345 12.423 1C11.5575 1.03433 10.511 1.56914 9.89021 2.28597C9.33387 2.92077 8.84664 3.93679 8.97811 4.91058C9.94277 4.98424 10.9282 4.42682 11.5287 3.70914" fill="black"/>
</svg>
