<svg width="18" height="18" viewBox="0 0 18 18" fill="none" xmlns="http://www.w3.org/2000/svg">
<g clip-path="url(#clip0)">
<path fill-rule="evenodd" clip-rule="evenodd" d="M17.6403 9.20469C17.6403 8.56651 17.583 7.95287 17.4766 7.36377H9.00018V10.8452H13.8439C13.6352 11.9702 13.0011 12.9234 12.0479 13.5615V15.8197H14.9566C16.6584 14.2529 17.6403 11.9456 17.6403 9.20469V9.20469Z" fill="#4285F4"/>
<path fill-rule="evenodd" clip-rule="evenodd" d="M8.99995 18C11.43 18 13.4673 17.1941 14.9564 15.8195L12.0477 13.5613C11.2418 14.1014 10.2109 14.4204 8.99995 14.4204C6.65584 14.4204 4.67173 12.8373 3.964 10.71H0.957153V13.0418C2.43807 15.9832 5.48174 18 8.99995 18V18Z" fill="#34A853"/>
<path fill-rule="evenodd" clip-rule="evenodd" d="M3.96412 10.7099C3.78412 10.1699 3.68185 9.59305 3.68185 8.99986C3.68185 8.40667 3.78412 7.82985 3.96412 7.28985V4.95801H0.957281C0.34773 6.17302 0 7.54758 0 8.99986C0 10.4521 0.34773 11.8267 0.957281 13.0417L3.96412 10.7099V10.7099Z" fill="#FBBC05"/>
<path fill-rule="evenodd" clip-rule="evenodd" d="M8.99995 3.57958C10.3213 3.57958 11.5077 4.03367 12.4404 4.9255L15.0218 2.34411C13.4632 0.891826 11.4259 0 8.99995 0C5.48174 0 2.43807 2.01684 0.957153 4.95822L3.964 7.29006C4.67173 5.16277 6.65584 3.57958 8.99995 3.57958V3.57958Z" fill="#EA4335"/>
</g>
<defs>
<clipPath id="clip0">
<rect width="18" height="18" fill="white"/>
</clipPath>
</defs>
</svg>
